<?xml version="1.0" encoding="utf-8"?>
<!-- Generator: Adobe Illustrator 26.5.0, SVG Export Plug-In . SVG Version: 6.00 Build 0)  -->
<svg version="1.1" id="Calque_1" xmlns="http://www.w3.org/2000/svg" xmlns:xlink="http://www.w3.org/1999/xlink" x="0px" y="0px"
	 viewBox="0 0 283.46 283.46" style="enable-background:new 0 0 283.46 283.46;" xml:space="preserve">
<style type="text/css">
	.st0{fill:#FF0000;}
</style>
<g>
	<path class="st0" d="M132.07,14.11c47.19,0,88.49,25.82,110.55,64.12c10.85,18.8,17.05,40.59,17.05,63.84
		c0,23.22-6.2,45.02-17.05,63.83c-22.06,38.29-63.36,64.12-110.55,64.12c-47.08,0-88.29-25.7-110.39-63.86l-6.51,3.77
		c23.4,40.4,67.05,67.62,116.89,67.62c49.97,0,93.68-27.34,117.05-67.88c11.47-19.92,18.05-43,18.05-67.6
		c0-24.6-6.59-47.69-18.05-67.61C225.75,33.92,182.04,6.58,132.07,6.58c-49.85,0-93.49,27.22-116.89,67.61l6.51,3.78
		C43.78,39.81,84.99,14.11,132.07,14.11"/>
	<path class="st0" d="M132.06,239.91c-36.1,0-67.69-19.77-84.56-49.07c-8.28-14.37-13.01-31.03-13.01-48.78
		c0-17.75,4.73-34.4,13.01-48.77c16.87-29.3,48.46-49.07,84.56-49.07c35.99,0,67.5,19.65,84.4,48.8l12.99-7.53
		c-19.5-33.65-55.86-56.32-97.4-56.32c-41.66,0-78.09,22.79-97.55,56.59c-9.56,16.57-15.03,35.81-15.03,56.3
		c0,20.5,5.48,39.74,15.03,56.31c19.48,33.8,55.91,56.59,97.55,56.59c41.53,0,77.89-22.66,97.4-56.32l-12.99-7.53
		C199.55,220.28,168.05,239.91,132.06,239.91"/>
	<path class="st0" d="M132.07,81.84c22.24,0,41.7,12.18,52.07,30.25c5.07,8.84,7.98,19.07,7.98,29.98c0,10.89-2.91,21.14-7.98,29.96
		c-10.38,18.07-29.84,30.26-52.07,30.26c-22.12,0-41.5-12.07-51.9-29.99l-19.5,11.29c14.3,24.67,40.96,41.28,71.4,41.28
		c30.55,0,57.29-16.73,71.57-41.53c6.99-12.15,10.98-26.25,10.98-41.25c0-15.02-3.99-29.11-10.99-41.27
		c-14.28-24.82-41.01-41.55-71.56-41.55c-30.44,0-57.1,16.62-71.4,41.28l19.5,11.3C90.57,93.9,109.94,81.84,132.07,81.84"/>
	<path class="st0" d="M132.06,157.12c-5.61,0-10.5-3.08-13.07-7.67c-1.24-2.18-1.94-4.7-1.94-7.38c0-2.69,0.71-5.21,1.94-7.38
		c2.57-4.58,7.46-7.67,13.07-7.67c5.51,0,10.31,2.97,12.92,7.4l25.98-15.04c-7.8-13.42-22.33-22.46-38.91-22.46
		c-16.69,0-31.29,9.14-39.07,22.71c-3.79,6.61-5.97,14.28-5.97,22.45c0,8.17,2.18,15.83,5.97,22.45
		c7.77,13.56,22.37,22.71,39.07,22.71c16.58,0,31.11-9.03,38.91-22.45l-25.98-15.06C142.37,154.14,137.57,157.12,132.06,157.12"/>
</g>
</svg>
