<?xml version="1.0" encoding="utf-8"?>
<!-- Generator: Adobe Illustrator 26.5.0, SVG Export Plug-In . SVG Version: 6.00 Build 0)  -->
<svg version="1.1" id="Calque_1" xmlns="http://www.w3.org/2000/svg" xmlns:xlink="http://www.w3.org/1999/xlink" x="0px" y="0px"
	 viewBox="0 0 311.81 311.81" style="enable-background:new 0 0 311.81 311.81;" xml:space="preserve">
<style type="text/css">
	.st0{fill:none;stroke:#FFFFFF;stroke-width:2;stroke-miterlimit:10;}
	.st1{fill:#FFFFFF;}
</style>
<g>
	<path class="st0" d="M221.57,156.03c0,36.6-29.68,66.27-66.29,66.27c-36.61,0-66.3-29.67-66.3-66.27s29.68-66.27,66.3-66.27
		C191.89,89.76,221.57,119.43,221.57,156.03L221.57,156.03z M293.84,156.03c0,0-62.04,66.27-138.56,66.27
		c-76.53,0-138.56-66.27-138.56-66.27s62.04-66.27,138.56-66.27C231.81,89.76,293.84,156.03,293.84,156.03L293.84,156.03z"/>
	<path class="st1" d="M155.28,187.24c17.24,0,31.21-13.98,31.21-31.21c0-17.24-13.97-31.22-31.21-31.22
		c-17.24,0-31.22,13.98-31.22,31.22C124.06,173.27,138.04,187.24,155.28,187.24L155.28,187.24z"/>
</g>
</svg>
