<?xml version="1.0" encoding="utf-8"?>
<!-- Generator: Adobe Illustrator 26.5.0, SVG Export Plug-In . SVG Version: 6.00 Build 0)  -->
<svg version="1.1" id="Calque_1" xmlns="http://www.w3.org/2000/svg" xmlns:xlink="http://www.w3.org/1999/xlink" x="0px" y="0px"
	 viewBox="0 0 42.52 42.52" style="enable-background:new 0 0 42.52 42.52;" xml:space="preserve">
<style type="text/css">
	.st0{fill:none;stroke:#FFFFFF;stroke-width:2;stroke-linejoin:round;stroke-miterlimit:10;}
	.st1{fill:#FFFFFF;}
</style>
<g>
	<polyline class="st0" points="4.7,7.11 10.93,7.11 13.17,26.78 32.14,26.78 35.3,12.69 11.56,12.69 	"/>
	<path class="st1" d="M18.22,33.62c0,1.59-1.29,2.88-2.88,2.88c-1.59,0-2.88-1.29-2.88-2.88c0-1.59,1.29-2.88,2.88-2.88
		C16.93,30.75,18.22,32.03,18.22,33.62L18.22,33.62z"/>
	<path class="st1" d="M32.13,33.62c0,1.59-1.29,2.88-2.88,2.88c-1.59,0-2.88-1.29-2.88-2.88c0-1.59,1.29-2.88,2.88-2.88
		C30.85,30.75,32.13,32.03,32.13,33.62L32.13,33.62z"/>
</g>
</svg>
