<?xml version="1.0" encoding="utf-8"?>
<!-- Generator: Adobe Illustrator 26.5.0, SVG Export Plug-In . SVG Version: 6.00 Build 0)  -->
<svg version="1.1" id="Calque_1" xmlns="http://www.w3.org/2000/svg" xmlns:xlink="http://www.w3.org/1999/xlink" x="0px" y="0px"
	 viewBox="0 0 311.81 311.81" style="enable-background:new 0 0 311.81 311.81;" xml:space="preserve">
<style type="text/css">
	.st0{fill:none;stroke:#FFFFFF;stroke-width:2;stroke-miterlimit:10;}
</style>
<g>
	<path class="st0" d="M181.96,167.98L111.82,98.1l5.43-5.41L84.58,70.95L69.55,85.92l21.81,32.55l5.43-5.41l70.14,69.88
		c-2.27,3.97-1.71,9.11,1.69,12.5l44.62,44.46c4.08,4.07,10.7,4.07,14.78,0l11.11-11.07c4.08-4.07,4.08-10.66,0-14.73l-44.62-44.46
		C191.11,166.27,185.95,165.72,181.96,167.98L181.96,167.98z M170.35,156.41l33.83-33.71c10.25,4.3,22.52,2.29,30.87-6.02
		c8.35-8.32,10.36-20.55,6.04-30.76l-10.94,10.9c-4.15,4.13-10.88,4.13-15.03,0v0c-4.15-4.13-4.15-10.84,0-14.97l10.94-10.9
		c-10.25-4.3-22.52-2.29-30.87,6.02c-8.35,8.32-10.36,20.55-6.04,30.76l-33.83,33.71 M140.19,156.51l-33.72,33.6
		c-10.25-4.3-22.52-2.29-30.87,6.02c-8.35,8.32-10.36,20.55-6.04,30.76l10.94-10.9c4.15-4.13,10.88-4.13,15.03,0l0,0
		c4.15,4.14,4.15,10.84,0,14.97l-10.94,10.9c10.25,4.3,22.52,2.29,30.87-6.02c8.35-8.32,10.36-20.55,6.04-30.76l33.83-33.71
		 M166.93,182.95l15.03-14.97"/>
</g>
</svg>
