<?xml version="1.0" encoding="utf-8"?>
<!-- Generator: Adobe Illustrator 26.5.0, SVG Export Plug-In . SVG Version: 6.00 Build 0)  -->
<svg version="1.1" id="Calque_1" xmlns="http://www.w3.org/2000/svg" xmlns:xlink="http://www.w3.org/1999/xlink" x="0px" y="0px"
	 viewBox="0 0 570.88 228.3" style="enable-background:new 0 0 570.88 228.3;" xml:space="preserve">
<style type="text/css">
	.st0{fill:#FF0000;}
	.st1{fill:#FFFFFF;}
</style>
<g>
	<path class="st0" d="M64.71,38.91c22.54,0,42.26,12.33,52.8,30.62c5.18,8.98,8.14,19.39,8.14,30.49c0,11.09-2.96,21.5-8.14,30.48
		c-10.53,18.29-30.26,30.62-52.8,30.62c-22.48,0-42.17-12.28-52.72-30.5l-3.11,1.8c11.18,19.3,32.02,32.3,55.83,32.3
		c23.87,0,44.74-13.06,55.91-32.42c5.48-9.51,8.62-20.54,8.62-32.28c0-11.75-3.15-22.78-8.62-32.29
		c-11.16-19.36-32.04-32.42-55.91-32.42c-23.81,0-44.65,13-55.83,32.29l3.11,1.81C22.55,51.19,42.23,38.91,64.71,38.91"/>
	<path class="st0" d="M64.71,146.76c-17.24,0-32.33-9.44-40.39-23.44c-3.95-6.87-6.22-14.82-6.22-23.3s2.26-16.43,6.22-23.29
		c8.06-14,23.14-23.44,40.39-23.44c17.19,0,32.24,9.38,40.31,23.31l6.21-3.6c-9.31-16.07-26.68-26.9-46.52-26.9
		c-19.9,0-37.3,10.88-46.59,27.03c-4.57,7.91-7.18,17.1-7.18,26.89c0,9.79,2.62,18.98,7.18,26.89c9.3,16.15,26.7,27.03,46.59,27.03
		c19.84,0,37.2-10.82,46.52-26.9l-6.21-3.6C96.94,137.38,81.9,146.76,64.71,146.76"/>
	<path class="st0" d="M64.71,71.26c10.62,0,19.92,5.82,24.87,14.45c2.42,4.22,3.81,9.11,3.81,14.32c0,5.2-1.39,10.1-3.81,14.31
		c-4.96,8.63-14.25,14.45-24.87,14.45c-10.57,0-19.82-5.77-24.79-14.32l-9.31,5.39c6.83,11.78,19.56,19.71,34.1,19.71
		c14.59,0,27.36-7.99,34.18-19.84c3.34-5.8,5.25-12.54,5.25-19.7c0-7.17-1.91-13.9-5.25-19.71C92.07,68.46,79.3,60.48,64.71,60.48
		c-14.54,0-27.27,7.94-34.1,19.71l9.31,5.4C44.89,77.02,54.15,71.26,64.71,71.26"/>
	<path class="st0" d="M64.71,107.21c-2.68,0-5.02-1.47-6.24-3.66c-0.59-1.04-0.93-2.25-0.93-3.53c0-1.29,0.34-2.49,0.93-3.53
		c1.23-2.19,3.56-3.66,6.24-3.66c2.63,0,4.92,1.42,6.17,3.54l12.41-7.19c-3.72-6.41-10.66-10.73-18.58-10.73
		c-7.97,0-14.94,4.37-18.66,10.85c-1.81,3.16-2.85,6.82-2.85,10.72c0,3.9,1.04,7.56,2.85,10.72c3.71,6.48,10.68,10.85,18.66,10.85
		c7.92,0,14.86-4.31,18.58-10.72l-12.41-7.19C69.63,105.79,67.34,107.21,64.71,107.21"/>
	<path class="st1" d="M533.89,121.73c5.01,0,8.37,2.86,9.75,8.26h-19.67C525.3,124.65,528.54,121.73,533.89,121.73 M533.83,107.07
		c-16.41,0-27.71,11.79-27.71,28.81c0,16.86,11.52,28.15,28.48,28.15c9.97,0,18.18-3.25,23.8-8.87l-11.13-10.35
		c-3.41,3.08-7.77,4.74-11.79,4.74c-5.95,0-10.14-2.75-11.57-8.65h36.64c0.22-1.16,0.33-3.58,0.33-5.35
		C560.83,118.64,549.86,107.07,533.83,107.07 M469.21,122.83c6.5,0,11.02,4.9,11.02,11.57c0,6.67-4.52,11.57-11.02,11.57
		c-6.72,0-11.35-5.01-11.35-11.57C457.86,127.79,462.49,122.83,469.21,122.83 M465.13,107.07c-14.49,0-25.07,12.01-25.07,27.32
		c0,15.32,10.58,27.27,25.07,27.27c6.95,0,11.68-2.76,14.88-6.83v3.36c0,8.6-6.61,12.45-13.61,12.45c-6.39,0-12.07-1.76-17.36-5.51
		l-6.11,13.72c6.45,4.58,15.65,6.89,24.68,6.89c17.68,0,29.31-10.58,29.31-28.32v-48.86h-16.69v5.62
		C477.04,109.99,472.24,107.07,465.13,107.07 M431.2,108.56h-17.19v29.36c0,6.89-3.75,10.03-8.87,10.03
		c-5.18,0-8.87-3.14-8.87-10.03v-29.36h-17.24v30.85c0,16.97,11.68,24.63,26.11,24.63c14.38,0,26.06-7.66,26.06-24.57V108.56
		L431.2,108.56z M340.8,123.16c6.77,0,11.73,5.12,11.73,12.39c0,7.27-4.96,12.4-11.73,12.4c-6.72,0-11.68-5.13-11.68-12.4
		C329.11,128.28,334.08,123.16,340.8,123.16 M340.8,107.07c-16.86,0-29.31,12.12-29.31,28.48c0,16.37,12.45,28.49,29.31,28.49
		c16.91,0,29.36-12.12,29.36-28.49C370.16,119.19,357.71,107.07,340.8,107.07 M301.84,107.07c-6.61,0-11.62,2.48-14.76,7.71v-6.22
		h-16.53v54.04h17.24v-29.2c0-6.72,3.75-9.75,9.87-9.75c3.08,0,6.33,0.66,8.65,1.43l1.6-17.19
		C306.58,107.51,304.38,107.07,301.84,107.07 M230.39,123.16c6.77,0,11.57,5.24,11.57,12.39c0,7.17-4.8,12.4-11.57,12.4
		c-6.89,0-11.52-5.35-11.52-12.4C218.88,128.5,223.51,123.16,230.39,123.16 M258.49,108.56H241.8v5.84
		c-3.25-4.24-8.21-7.33-15.48-7.33c-14.49,0-25.18,12.56-25.18,28.43c0,15.98,10.69,28.54,25.13,28.54c7.32,0,12.28-3.03,15.53-7.27
		v5.83h16.69V108.56L258.49,108.56z M174.2,107.07c-17.24,0-29.15,11.96-29.15,28.48c0,16.53,11.9,28.49,29.15,28.49
		c10.02,0,17.96-4.41,23.14-11.73l-13.45-9.59c-2.69,3.41-6.11,5.23-10.19,5.23c-6,0-11.02-4.58-11.02-12.4
		c0-7.76,5.12-12.39,11.13-12.39c4.19,0,7.27,1.71,9.97,5.18l13.5-9.42C192.1,111.54,184.22,107.07,174.2,107.07"/>
	<path class="st1" d="M265.28,30.58l15.42-18.41h-19.91l-11.76,18.41H265.28L265.28,30.58z M260.07,50.71
		c5.05,0,8.43,2.88,9.82,8.32h-19.8C251.42,53.65,254.69,50.71,260.07,50.71 M260.02,35.96c-16.53,0-27.9,11.87-27.9,29.01
		c0,16.97,11.59,28.34,28.67,28.34c10.04,0,18.3-3.27,23.95-8.93l-11.2-10.43c-3.44,3.11-7.82,4.77-11.87,4.77
		c-5.99,0-10.2-2.77-11.64-8.71h36.88c0.22-1.16,0.33-3.6,0.33-5.38C287.19,47.6,276.15,35.96,260.02,35.96 M222.86,12H205.5v79.86
		h17.36V12L222.86,12z M174.39,35.96c-17.36,0-29.34,12.04-29.34,28.67c0,16.64,11.98,28.67,29.34,28.67
		c10.1,0,18.08-4.44,23.29-11.81l-13.54-9.65c-2.72,3.44-6.15,5.27-10.26,5.27c-6.04,0-11.09-4.6-11.09-12.48
		c0-7.82,5.16-12.47,11.2-12.47c4.21,0,7.32,1.72,10.04,5.21l13.58-9.48C192.41,40.45,184.49,35.96,174.39,35.96"/>
	<path class="st1" d="M353.31,202.27c2.58,0,4.4,1.99,4.4,4.72c0,2.72-1.83,4.71-4.4,4.71c-2.62,0-4.38-2.03-4.38-4.71
		C348.93,204.31,350.69,202.27,353.31,202.27 M363.99,196.72h-6.34v2.22c-1.24-1.61-3.12-2.79-5.89-2.79
		c-5.51,0-9.57,4.77-9.57,10.81c0,6.07,4.06,10.85,9.55,10.85c2.79,0,4.67-1.15,5.91-2.76v2.22h6.34V196.72L363.99,196.72z
		 M339.4,197.94c-3.37-1.3-5.51-1.76-8.84-1.76c-5.59,0-8.88,2.49-8.88,6.87c0,3.69,2.3,5.74,7.24,6.47l1.2,0.17
		c2.32,0.35,3.25,0.67,3.25,1.47c0,0.88-0.84,1.34-2.87,1.34c-2.85,0-5.2-0.71-7.25-1.93l-2.28,5.07c2.35,1.53,5.97,2.15,9.49,2.15
		c5.99,0,9.51-2.7,9.51-7.2c0-3.46-2.32-5.57-6.72-6.24l-1.51-0.23c-2.01-0.32-3.31-0.52-3.31-1.4c0-0.76,0.68-1.26,2.39-1.26
		c2.1,0.02,4.74,0.74,6.77,1.6L339.4,197.94L339.4,197.94z M300.9,194.12l5.83-6.95h-7.52l-4.44,6.95H300.9L300.9,194.12z
		 M298.94,201.73c1.91,0,3.18,1.09,3.71,3.14h-7.48C295.67,202.84,296.91,201.73,298.94,201.73 M298.91,196.16
		c-6.24,0-10.53,4.48-10.53,10.95c0,6.41,4.38,10.7,10.83,10.7c3.79,0,6.91-1.23,9.04-3.37l-4.23-3.94
		c-1.3,1.17-2.95,1.81-4.49,1.81c-2.26,0-3.85-1.05-4.4-3.3h13.93c0.08-0.44,0.12-1.36,0.12-2.02
		C309.18,200.55,305.01,196.16,298.91,196.16 M285.7,196.72h-7.01v-5.99h-6.55v5.99h-3.83v5.8h3.83v6.85c0,5.15,2.49,8.44,8,8.44
		c3.31,0,5.36-0.94,7.29-2.28l-2.26-5.11c-1.03,0.6-2.35,1.27-3.56,1.27c-1.66,0-2.91-0.79-2.91-3.16v-6.01h7.01V196.72
		L285.7,196.72z M262.01,186.46c-2.22,0-3.92,1.71-3.92,3.94c0,2.2,1.69,3.9,3.92,3.9c2.2,0,3.92-1.7,3.92-3.9
		C265.93,188.18,264.21,186.46,262.01,186.46 M265.32,196.72h-6.55v20.55h6.55V196.72L265.32,196.72z M253.46,196.16
		c-2.51,0-4.42,0.94-5.62,2.93v-2.37h-6.28v20.55h6.55v-11.1c0-2.56,1.43-3.71,3.75-3.71c1.17,0,2.41,0.25,3.29,0.55l0.61-6.53
		C255.26,196.33,254.42,196.16,253.46,196.16 M237.1,196.72h-6.53v11.17c0,2.62-1.43,3.81-3.38,3.81c-1.97,0-3.37-1.19-3.37-3.81
		v-11.17h-6.55v11.73c0,6.45,4.44,9.36,9.92,9.36c5.46,0,9.91-2.91,9.91-9.34V196.72L237.1,196.72z M205.67,196.16
		c-6.56,0-11.08,4.54-11.08,10.83c0,6.28,4.52,10.82,11.08,10.82c3.81,0,6.83-1.67,8.79-4.46l-5.11-3.64
		c-1.03,1.3-2.33,1.99-3.88,1.99c-2.28,0-4.19-1.74-4.19-4.71c0-2.96,1.94-4.72,4.23-4.72c1.59,0,2.76,0.65,3.79,1.97l5.13-3.58
		C212.47,197.85,209.48,196.16,205.67,196.16 M183.86,194.12l5.82-6.95h-7.52l-4.44,6.95H183.86L183.86,194.12z M181.89,201.73
		c1.91,0,3.19,1.09,3.71,3.14h-7.48C178.62,202.84,179.86,201.73,181.89,201.73 M181.87,196.16c-6.24,0-10.53,4.48-10.53,10.95
		c0,6.41,4.38,10.7,10.83,10.7c3.79,0,6.91-1.23,9.05-3.37l-4.23-3.94c-1.3,1.17-2.95,1.81-4.48,1.81c-2.27,0-3.86-1.05-4.4-3.3
		h13.93c0.08-0.44,0.12-1.36,0.12-2.02C192.13,200.55,187.97,196.16,181.87,196.16 M168.55,197.94c-3.37-1.3-5.51-1.76-8.84-1.76
		c-5.59,0-8.88,2.49-8.88,6.87c0,3.69,2.3,5.74,7.25,6.47l1.19,0.17c2.33,0.35,3.25,0.67,3.25,1.47c0,0.88-0.84,1.34-2.87,1.34
		c-2.85,0-5.2-0.71-7.25-1.93l-2.28,5.07c2.34,1.53,5.96,2.15,9.49,2.15c5.99,0,9.51-2.7,9.51-7.2c0-3.46-2.32-5.57-6.72-6.24
		l-1.51-0.23c-2.01-0.32-3.31-0.52-3.31-1.4c0-0.76,0.67-1.26,2.39-1.26c2.1,0.02,4.73,0.74,6.76,1.6L168.55,197.94L168.55,197.94z"
		/>
</g>
</svg>
